<svg width="64" height="64" viewBox="0 0 64 64" fill="none" xmlns="http://www.w3.org/2000/svg">
<g id="fi-rr-gift" clip-path="url(#clip0_1_195)">
<path id="Vector" d="M53.3333 18.6667H48.6987C50.2064 17.3376 51.4032 15.693 52.2042 13.8496C53.0051 12.0062 53.3906 10.0091 53.3333 8C53.3333 7.29276 53.0524 6.61448 52.5523 6.11438C52.0522 5.61428 51.3739 5.33333 50.6667 5.33333C49.9594 5.33333 49.2811 5.61428 48.781 6.11438C48.281 6.61448 48 7.29276 48 8C48 14.992 41.6773 17.4133 36.8693 18.2427C38.644 15.0961 39.7122 11.601 40 8C40 5.87827 39.1571 3.84344 37.6569 2.34315C36.1566 0.842855 34.1217 0 32 0C29.8783 0 27.8434 0.842855 26.3431 2.34315C24.8429 3.84344 24 5.87827 24 8C24.2878 11.601 25.356 15.0961 27.1307 18.2427C22.3227 17.4133 16 14.992 16 8C16 7.29276 15.719 6.61448 15.219 6.11438C14.7189 5.61428 14.0406 5.33333 13.3333 5.33333C12.6261 5.33333 11.9478 5.61428 11.4477 6.11438C10.9476 6.61448 10.6667 7.29276 10.6667 8C10.6094 10.0091 10.9949 12.0062 11.7958 13.8496C12.5968 15.693 13.7936 17.3376 15.3013 18.6667H10.6667C7.83769 18.6667 5.12458 19.7905 3.12419 21.7909C1.12381 23.7912 0 26.5044 0 29.3333L0 32C0 33.4145 0.561903 34.771 1.5621 35.7712C2.56229 36.7714 3.91885 37.3333 5.33333 37.3333V50.6667C5.33757 54.2016 6.74369 57.5905 9.24325 60.0901C11.7428 62.5897 15.1317 63.9958 18.6667 64H45.3333C48.8683 63.9958 52.2572 62.5897 54.7568 60.0901C57.2563 57.5905 58.6624 54.2016 58.6667 50.6667V37.3333C60.0812 37.3333 61.4377 36.7714 62.4379 35.7712C63.4381 34.771 64 33.4145 64 32V29.3333C64 26.5044 62.8762 23.7912 60.8758 21.7909C58.8754 19.7905 56.1623 18.6667 53.3333 18.6667ZM32 5.33333C32.7072 5.33333 33.3855 5.61428 33.8856 6.11438C34.3857 6.61448 34.6667 7.29276 34.6667 8C34.3448 10.8342 33.4366 13.5704 32 16.0347C30.5634 13.5704 29.6552 10.8342 29.3333 8C29.3333 7.29276 29.6143 6.61448 30.1144 6.11438C30.6145 5.61428 31.2928 5.33333 32 5.33333ZM5.33333 29.3333C5.33333 27.9188 5.89524 26.5623 6.89543 25.5621C7.89562 24.5619 9.25218 24 10.6667 24H29.3333V32H5.33333V29.3333ZM10.6667 50.6667V37.3333H29.3333V58.6667H18.6667C16.5449 58.6667 14.5101 57.8238 13.0098 56.3235C11.5095 54.8232 10.6667 52.7884 10.6667 50.6667ZM53.3333 50.6667C53.3333 52.7884 52.4905 54.8232 50.9902 56.3235C49.4899 57.8238 47.4551 58.6667 45.3333 58.6667H34.6667V37.3333H53.3333V50.6667ZM34.6667 32V24H53.3333C54.7478 24 56.1044 24.5619 57.1046 25.5621C58.1048 26.5623 58.6667 27.9188 58.6667 29.3333V32H34.6667Z" fill="#5FE26C"/>
</g>
<defs>
<clipPath id="clip0_1_195">
<rect width="64" height="64" fill="white"/>
</clipPath>
</defs>
</svg>
