<svg width="24" height="24" viewBox="0 0 24 24" fill="none" xmlns="http://www.w3.org/2000/svg">
<g id="fi-br-heart" clip-path="url(#clip0_1_103)">
<path id="Vector" d="M17.25 1.85071C16.2243 1.86063 15.2152 2.11065 14.3035 2.58073C13.3918 3.05081 12.6029 3.72788 12 4.55771C11.397 3.72788 10.6081 3.05081 9.69644 2.58073C8.78476 2.11065 7.77565 1.86063 6.74996 1.85071C4.89173 1.92491 3.13848 2.73189 1.87358 4.09517C0.608672 5.45846 -0.0649657 7.26713 -4.03235e-05 9.12571C-4.03235e-05 13.6777 4.67396 18.5507 8.59996 21.8377C9.55329 22.6393 10.7589 23.0788 12.0045 23.0788C13.25 23.0788 14.4556 22.6393 15.409 21.8377C19.331 18.5507 24.009 13.6777 24.009 9.12571C24.0738 7.26563 23.399 5.45564 22.1322 4.0921C20.8653 2.72856 19.1098 1.9226 17.25 1.85071ZM13.477 19.5387C13.0634 19.8869 12.5401 20.0779 11.9995 20.0779C11.4588 20.0779 10.9355 19.8869 10.522 19.5387C5.74196 15.5307 2.99996 11.7357 2.99996 9.12571C2.9362 8.06292 3.29424 7.01789 3.99634 6.21749C4.69844 5.4171 5.68793 4.92596 6.74996 4.85071C7.81199 4.92596 8.80148 5.4171 9.50358 6.21749C10.2057 7.01789 10.5637 8.06292 10.5 9.12571C10.5 9.52353 10.658 9.90506 10.9393 10.1864C11.2206 10.4677 11.6021 10.6257 12 10.6257C12.3978 10.6257 12.7793 10.4677 13.0606 10.1864C13.3419 9.90506 13.5 9.52353 13.5 9.12571C13.4362 8.06292 13.7942 7.01789 14.4963 6.21749C15.1984 5.4171 16.1879 4.92596 17.25 4.85071C18.312 4.92596 19.3015 5.4171 20.0036 6.21749C20.7057 7.01789 21.0637 8.06292 21 9.12571C21 11.7357 18.258 15.5307 13.477 19.5387Z" fill="white"/>
</g>
<defs>
<clipPath id="clip0_1_103">
<rect width="24" height="24" fill="white"/>
</clipPath>
</defs>
</svg>
