<svg width="24" height="24" viewBox="0 0 24 24" fill="none" xmlns="http://www.w3.org/2000/svg">
<g id="fi-rr-phone-call" clip-path="url(#clip0_1_278)">
<path id="Vector" d="M12.9999 1.00013C12.9999 0.734916 13.1053 0.480562 13.2928 0.293025C13.4803 0.105489 13.7347 0.000132124 13.9999 0.000132124C16.6512 0.00304372 19.193 1.05755 21.0678 2.93228C22.9425 4.80701 23.997 7.34886 23.9999 10.0001C23.9999 10.2654 23.8945 10.5197 23.707 10.7072C23.5195 10.8948 23.2651 11.0001 22.9999 11.0001C22.7347 11.0001 22.4803 10.8948 22.2928 10.7072C22.1053 10.5197 21.9999 10.2654 21.9999 10.0001C21.9975 7.87913 21.1539 5.84568 19.6541 4.34591C18.1544 2.84613 16.1209 2.00251 13.9999 2.00013C13.7347 2.00013 13.4803 1.89478 13.2928 1.70724C13.1053 1.5197 12.9999 1.26535 12.9999 1.00013ZM13.9999 6.00013C15.0608 6.00013 16.0782 6.42156 16.8283 7.17171C17.5785 7.92185 17.9999 8.93927 17.9999 10.0001C17.9999 10.2654 18.1053 10.5197 18.2928 10.7072C18.4803 10.8948 18.7347 11.0001 18.9999 11.0001C19.2651 11.0001 19.5195 10.8948 19.707 10.7072C19.8945 10.5197 19.9999 10.2654 19.9999 10.0001C19.9983 8.40932 19.3657 6.88412 18.2408 5.75925C17.1159 4.63437 15.5907 4.00172 13.9999 4.00013C13.7347 4.00013 13.4803 4.10549 13.2928 4.29303C13.1053 4.48056 12.9999 4.73492 12.9999 5.00013C12.9999 5.26535 13.1053 5.5197 13.2928 5.70724C13.4803 5.89478 13.7347 6.00013 13.9999 6.00013ZM23.0929 16.7391C23.6724 17.3202 23.9978 18.1074 23.9978 18.9281C23.9978 19.7488 23.6724 20.536 23.0929 21.1171L22.1829 22.1661C13.9929 30.0071 -5.93707 10.0821 1.78292 1.86613L2.93292 0.866132C3.51469 0.302809 4.29485 -0.0088188 5.10462 -0.00133303C5.91439 0.00615273 6.68866 0.332151 7.25992 0.906132C7.29092 0.937132 9.14391 3.34413 9.14391 3.34413C9.69374 3.92176 9.99982 4.68906 9.99851 5.48654C9.99721 6.28401 9.68863 7.05031 9.13691 7.62613L7.97892 9.08213C8.61976 10.6392 9.56198 12.0544 10.7514 13.2462C11.9409 14.4381 13.3541 15.3831 14.9099 16.0271L16.3749 14.8621C16.9508 14.3108 17.717 14.0026 18.5142 14.0015C19.3114 14.0004 20.0785 14.3065 20.6559 14.8561C20.6559 14.8561 23.0619 16.7081 23.0929 16.7391ZM21.7169 18.1931C21.7169 18.1931 19.3239 16.3521 19.2929 16.3211C19.0869 16.1169 18.8085 16.0023 18.5184 16.0023C18.2283 16.0023 17.9499 16.1169 17.7439 16.3211C17.7169 16.3491 15.6999 17.9561 15.6999 17.9561C15.564 18.0643 15.4022 18.1352 15.2306 18.1619C15.0589 18.1885 14.8832 18.17 14.7209 18.1081C12.7054 17.3577 10.8746 16.1829 9.35275 14.6632C7.83085 13.1436 6.65332 11.3146 5.89992 9.30013C5.83312 9.13559 5.81134 8.95622 5.83682 8.78047C5.86231 8.60472 5.93413 8.43893 6.04492 8.30013C6.04492 8.30013 7.65192 6.28213 7.67892 6.25613C7.88318 6.05012 7.99779 5.77175 7.99779 5.48163C7.99779 5.19152 7.88318 4.91315 7.67892 4.70713C7.64792 4.67713 5.80692 2.28213 5.80692 2.28213C5.59782 2.09464 5.32492 1.99423 5.04417 2.00148C4.76341 2.00873 4.49606 2.1231 4.29692 2.32113L3.14692 3.32113C-2.49507 10.1051 14.7759 26.4181 20.7209 20.8001L21.6319 19.7501C21.8454 19.5524 21.9736 19.2794 21.9895 18.9888C22.0053 18.6983 21.9076 18.4129 21.7169 18.1931Z" fill="white"/>
</g>
<defs>
<clipPath id="clip0_1_278">
<rect width="24" height="24" fill="white"/>
</clipPath>
</defs>
</svg>
