<svg width="64" height="64" viewBox="0 0 64 64" fill="none" xmlns="http://www.w3.org/2000/svg">
<g id="fi-rr-salad" clip-path="url(#clip0_1_194)">
<path id="Vector" d="M61.8503 30.9339C60.4334 29.0417 58.4201 27.6824 56.1356 27.0752C57.2491 23.8384 58.0719 20.5088 58.5942 17.1259C58.7649 15.8962 58.6479 14.6437 58.2522 13.4669C57.8566 12.2902 57.1932 11.2213 56.3143 10.3445C55.4355 9.46769 54.365 8.80684 53.1873 8.41398C52.0097 8.02113 50.7569 7.907 49.5276 8.08058C49.1916 8.12591 48.1943 8.27258 46.8316 8.53658C47.6754 6.66846 48.0751 4.63035 47.9996 2.58191C47.9884 2.23172 47.9083 1.88716 47.7639 1.56792C47.6196 1.24867 47.4137 0.960986 47.1582 0.721287C46.9026 0.481588 46.6024 0.29457 46.2746 0.17091C45.9467 0.047251 45.5978 -0.010628 45.2476 0.000578124C44.8974 0.0117843 44.5528 0.091856 44.2336 0.236222C43.9143 0.380587 43.6267 0.58642 43.387 0.841967C43.1473 1.09751 42.9602 1.39777 42.8366 1.72559C42.7129 2.05342 42.655 2.40239 42.6662 2.75258C42.7117 4.04076 42.4474 5.32104 41.8956 6.48591C41.5099 5.44499 40.9598 4.47265 40.2663 3.60591C39.0874 2.2643 37.591 1.23965 35.914 0.625654C34.2369 0.0116595 32.4327 -0.172078 30.6662 0.0912449C28.7294 0.246714 26.8781 0.955768 25.3329 2.13391C23.5861 0.819761 21.4728 0.0833252 19.2876 0.0272448C16.5147 -0.241501 13.7484 0.599431 11.5942 2.36591C10.5005 3.3397 9.61734 4.52686 8.99917 5.85446C8.381 7.18205 8.04084 8.62203 7.99958 10.0859C7.9264 12.43 8.60888 14.7354 9.94625 16.6619C8.31931 18.0568 7.0564 19.8268 6.26657 21.8191C5.47675 23.8113 5.18376 25.9658 5.41291 28.0966C3.30399 29.2718 1.66049 31.133 0.755335 33.3712C-0.149824 35.6093 -0.262185 38.0898 0.436911 40.4006C2.2636 46.7566 5.66352 52.5494 10.3222 57.2433C14.7916 61.6012 20.7946 64.0281 27.0369 64.0006H36.9622C43.2038 64.0285 49.2062 61.6015 53.6743 57.2433C58.3347 52.5503 61.7356 46.7572 63.5623 40.4006C64.0383 38.7988 64.1315 37.1076 63.8341 35.4633C63.5367 33.8189 62.8572 32.2675 61.8503 30.9339ZM50.2689 13.3606C50.6816 13.3049 51.1016 13.3454 51.496 13.4789C51.8905 13.6123 52.2487 13.8352 52.5428 14.13C52.8368 14.4249 53.0588 14.7837 53.1912 15.1785C53.3236 15.5733 53.363 15.9934 53.3063 16.4059C52.747 19.9077 51.8403 23.3452 50.5996 26.6672H43.7702L47.2183 23.2192C47.704 22.7163 47.9728 22.0427 47.9667 21.3435C47.9606 20.6443 47.6802 19.9755 47.1858 19.4811C46.6913 18.9866 46.0225 18.7062 45.3233 18.7001C44.6241 18.694 43.9505 18.9628 43.4476 19.4486L36.2289 26.6672H32.0982C31.9035 25.2647 32.0372 23.8361 32.4889 22.4941C32.9405 21.152 33.6978 19.9333 34.7009 18.9339C35.8396 17.7846 40.2049 14.6672 50.2689 13.3606ZM13.3329 10.2646C13.3489 9.53044 13.5145 8.80727 13.8194 8.13924C14.1243 7.47122 14.5621 6.87236 15.1062 6.37925C16.2064 5.56603 17.5732 5.19838 18.9329 5.34991C19.5897 5.32291 20.2447 5.43511 20.855 5.67915C21.4654 5.92318 22.0172 6.29354 22.4742 6.76591C22.8341 7.16795 23.2747 7.48953 23.7673 7.70964C24.2599 7.92974 24.7934 8.04342 25.3329 8.04325C25.8712 8.04059 26.4029 7.92478 26.8936 7.70335C27.3842 7.48192 27.8228 7.15981 28.1809 6.75791C28.5786 6.3372 29.0559 5.99964 29.5851 5.7648C30.1142 5.52997 30.6848 5.40254 31.2636 5.38991C32.1451 5.2329 33.0517 5.29686 33.9024 5.57609C34.7531 5.85531 35.5213 6.34107 36.1382 6.98991C36.9478 8.0263 37.3703 9.31269 37.3329 10.6272C37.3329 10.8006 37.3329 11.1792 37.3329 11.1792C33.7929 12.454 30.7689 14.855 28.7249 18.0139C27.041 16.0205 24.8006 14.575 22.2903 13.8624C19.7801 13.1498 17.1143 13.2026 14.6342 14.0139C13.7493 12.9695 13.2853 11.6327 13.3329 10.2646ZM10.6662 26.6672C10.6662 24.5455 11.5091 22.5107 13.0094 21.0104C14.5097 19.5101 16.5445 18.6672 18.6662 18.6672C20.788 18.6672 22.8228 19.5101 24.3231 21.0104C25.8234 22.5107 26.6662 24.5455 26.6662 26.6672H10.6662ZM58.4423 38.9046C56.8489 44.3903 53.9165 49.3938 49.9089 53.4646C46.4438 56.8313 41.7935 58.7 36.9622 58.6673H27.0369C22.2043 58.6988 17.5528 56.8304 14.0849 53.4646C10.0771 49.3939 7.14469 44.3904 5.55158 38.9046C5.31251 38.0972 5.26615 37.245 5.4162 36.4165C5.56625 35.588 5.90855 34.8062 6.41558 34.1339C6.90755 33.4703 7.54851 32.9315 8.28683 32.561C9.02514 32.1904 9.84017 31.9985 10.6662 32.0006H53.3329C54.1617 31.996 54.9799 32.1867 55.7212 32.5574C56.4625 32.928 57.106 33.4681 57.5996 34.1339C58.103 34.808 58.4415 35.5906 58.5878 36.4191C58.7341 37.2476 58.6843 38.0988 58.4423 38.9046Z" fill="#5FE26C"/>
</g>
<defs>
<clipPath id="clip0_1_194">
<rect width="64" height="64" fill="white"/>
</clipPath>
</defs>
</svg>
