<svg width="64" height="64" viewBox="0 0 64 64" fill="none" xmlns="http://www.w3.org/2000/svg">
<g id="fi-rr-shopping-cart-check" clip-path="url(#clip0_1_196)">
<path id="Vector" d="M18.6664 64.0017C21.612 64.0017 23.9998 61.6139 23.9998 58.6684C23.9998 55.7229 21.612 53.3351 18.6664 53.3351C15.7209 53.3351 13.3331 55.7229 13.3331 58.6684C13.3331 61.6139 15.7209 64.0017 18.6664 64.0017Z" fill="#5FE26C"/>
<path id="Vector_2" d="M45.3333 64.0017C48.2788 64.0017 50.6666 61.6139 50.6666 58.6684C50.6666 55.7229 48.2788 53.3351 45.3333 53.3351C42.3878 53.3351 40 55.7229 40 58.6684C40 61.6139 42.3878 64.0017 45.3333 64.0017Z" fill="#5FE26C"/>
<path id="Vector_3" d="M63.1598 3.56104C62.6597 3.06111 61.9815 2.78027 61.2744 2.78027C60.5673 2.78027 59.8892 3.06111 59.3891 3.56104L45.6318 17.3317L41.4958 13.0144C41.2531 12.7619 40.963 12.5597 40.6422 12.4193C40.3214 12.2789 39.976 12.203 39.6259 12.1961C39.2758 12.1892 38.9277 12.2513 38.6015 12.3789C38.2754 12.5064 37.9776 12.697 37.7251 12.9397C37.4726 13.1824 37.2704 13.4724 37.13 13.7933C36.9896 14.1141 36.9138 14.4594 36.9068 14.8096C36.8928 15.5167 37.1603 16.2004 37.6504 16.7104L41.9544 21.1877C42.413 21.683 42.9673 22.0802 43.5838 22.3552C44.2003 22.6302 44.8661 22.7774 45.5411 22.7877H45.6291C46.2906 22.7899 46.9459 22.6607 47.557 22.4075C48.1682 22.1544 48.7229 21.7823 49.1891 21.313L63.1598 7.3317C63.6597 6.83163 63.9405 6.15348 63.9405 5.44637C63.9405 4.73927 63.6597 4.06111 63.1598 3.56104Z" fill="#5FE26C"/>
<path id="Vector_4" d="M58.4 24.0427C58.0552 23.9804 57.7015 23.9866 57.3592 24.0611C57.0168 24.1355 56.6925 24.2767 56.4047 24.4766C56.117 24.6764 55.8714 24.931 55.6821 25.2258C55.4927 25.5206 55.3634 25.8498 55.3013 26.1947L54.96 28.0853C54.6273 29.9315 53.6565 31.6021 52.2171 32.8051C50.7776 34.0081 48.9613 34.667 47.0853 34.6667H14.448L11.9413 13.3333H29.3333C30.0406 13.3333 30.7189 13.0524 31.2189 12.5523C31.719 12.0522 32 11.3739 32 10.6667C32 9.95942 31.719 9.28115 31.2189 8.78105C30.7189 8.28095 30.0406 8 29.3333 8H11.312L11.2 7.06133C10.9702 5.11626 10.0348 3.32308 8.57117 2.02161C7.10751 0.720145 5.21727 0.000834231 3.25867 0L2.66667 0C1.95942 0 1.28115 0.280952 0.781049 0.781049C0.280952 1.28115 0 1.95942 0 2.66667C0 3.37391 0.280952 4.05219 0.781049 4.55229C1.28115 5.05238 1.95942 5.33333 2.66667 5.33333H3.25867C3.91182 5.33342 4.54223 5.57322 5.03033 6.00724C5.51842 6.44127 5.83025 7.03933 5.90667 7.688L9.576 38.888C9.95694 42.1328 11.5159 45.1248 13.9571 47.296C16.3982 49.4673 19.5516 50.6667 22.8187 50.6667H50.6667C51.3739 50.6667 52.0522 50.3857 52.5523 49.8856C53.0524 49.3855 53.3333 48.7072 53.3333 48C53.3333 47.2928 53.0524 46.6145 52.5523 46.1144C52.0522 45.6143 51.3739 45.3333 50.6667 45.3333H22.8187C21.164 45.3337 19.55 44.8209 18.199 43.8657C16.8479 42.9106 15.8262 41.56 15.2747 40H47.0853C50.2114 40.0002 53.2382 38.902 55.6369 36.8972C58.0355 34.8924 59.6534 32.1085 60.208 29.032L60.5493 27.1387C60.6744 26.4431 60.5183 25.7264 60.1153 25.1459C59.7123 24.5654 59.0954 24.1686 58.4 24.0427Z" fill="#5FE26C"/>
</g>
<defs>
<clipPath id="clip0_1_196">
<rect width="64" height="64" fill="white"/>
</clipPath>
</defs>
</svg>
