<svg width="64" height="64" viewBox="0 0 64 64" fill="none" xmlns="http://www.w3.org/2000/svg">
<g id="fi-rr-time-fast" clip-path="url(#clip0_1_193)">
<path id="Vector" d="M24 63.9983H2.66667C1.95942 63.9983 1.28115 63.7174 0.781049 63.2173C0.280952 62.7172 0 62.0389 0 61.3317C0 60.6244 0.280952 59.9462 0.781049 59.4461C1.28115 58.946 1.95942 58.665 2.66667 58.665H24C24.7072 58.665 25.3855 58.946 25.8856 59.4461C26.3857 59.9462 26.6667 60.6244 26.6667 61.3317C26.6667 62.0389 26.3857 62.7172 25.8856 63.2173C25.3855 63.7174 24.7072 63.9983 24 63.9983Z" fill="#5FE26C"/>
<path id="Vector_2" d="M18.6667 53.3334H2.66667C1.95942 53.3334 1.28115 53.0524 0.781049 52.5523C0.280952 52.0522 0 51.3739 0 50.6667C0 49.9594 0.280952 49.2812 0.781049 48.7811C1.28115 48.281 1.95942 48 2.66667 48H18.6667C19.3739 48 20.0522 48.281 20.5523 48.7811C21.0524 49.2812 21.3333 49.9594 21.3333 50.6667C21.3333 51.3739 21.0524 52.0522 20.5523 52.5523C20.0522 53.0524 19.3739 53.3334 18.6667 53.3334Z" fill="#5FE26C"/>
<path id="Vector_3" d="M13.3333 42.6683H2.66667C1.95942 42.6683 1.28115 42.3874 0.781049 41.8873C0.280952 41.3872 0 40.7089 0 40.0016C0 39.2944 0.280952 38.6161 0.781049 38.116C1.28115 37.6159 1.95942 37.335 2.66667 37.335H13.3333C14.0406 37.335 14.7189 37.6159 15.219 38.116C15.719 38.6161 16 39.2944 16 40.0016C16 40.7089 15.719 41.3872 15.219 41.8873C14.7189 42.3874 14.0406 42.6683 13.3333 42.6683Z" fill="#5FE26C"/>
<path id="Vector_4" d="M34.6671 63.8788C33.9599 63.9103 33.2691 63.6595 32.7468 63.1817C32.2244 62.7039 31.9133 62.0381 31.8818 61.3308C31.8503 60.6236 32.1011 59.9328 32.579 59.4105C33.0568 58.8881 33.7226 58.577 34.4298 58.5455C39.4764 58.0838 44.2869 56.1936 48.2979 53.0964C52.3089 49.9992 55.3544 45.8232 57.0776 41.0576C58.8008 36.2919 59.1304 31.1339 58.0278 26.1877C56.9252 21.2414 54.436 16.7118 50.8518 13.1292C47.2676 9.54671 42.7369 7.05963 37.7901 5.95929C32.8434 4.85896 27.6855 5.19093 22.9207 6.91633C18.1558 8.64174 13.9813 11.6891 10.8859 15.7016C7.79057 19.714 5.90261 24.5254 5.44318 29.5722C5.37953 30.2766 5.03866 30.9269 4.49555 31.3799C3.95245 31.833 3.2516 32.0518 2.54719 31.9882C1.84277 31.9245 1.1925 31.5836 0.739408 31.0405C0.286321 30.4974 0.0675382 29.7966 0.13119 29.0922C0.874893 20.8877 4.75413 13.286 10.9614 7.86968C17.1686 2.45332 25.2257 -0.360454 33.4553 0.0140732C41.6849 0.3886 49.453 3.92257 55.1427 9.88035C60.8323 15.8381 64.005 23.7607 64.0004 31.9988C64.0413 39.9944 61.0709 47.7124 55.6802 53.6175C50.2894 59.5227 42.8733 63.1822 34.9072 63.8682C34.8271 63.8762 34.7445 63.8788 34.6671 63.8788Z" fill="#5FE26C"/>
<path id="Vector_5" d="M32.0004 16C31.2932 16 30.6149 16.281 30.1148 16.781C29.6147 17.2811 29.3337 17.9594 29.3337 18.6667V32C29.3339 32.7072 29.6149 33.3854 30.1151 33.8853L38.1151 41.8853C38.618 42.3711 39.2916 42.6399 39.9908 42.6338C40.69 42.6277 41.3588 42.3473 41.8533 41.8528C42.3477 41.3584 42.6281 40.6896 42.6342 39.9904C42.6403 39.2912 42.3715 38.6176 41.8857 38.1147L34.6671 30.896V18.6667C34.6671 17.9594 34.3861 17.2811 33.886 16.781C33.3859 16.281 32.7077 16 32.0004 16Z" fill="#5FE26C"/>
</g>
<defs>
<clipPath id="clip0_1_193">
<rect width="64" height="64" fill="white"/>
</clipPath>
</defs>
</svg>
